<svg xmlns="http://www.w3.org/2000/svg" viewBox="0 0 172.64 38"><defs><style>.cls-1,.cls-3{fill:#00d564;}.cls-2{fill:#fff;}.cls-3{stroke:#00d564;stroke-miterlimit:10;stroke-width:0.38px;}</style></defs><g id="レイヤー_2" data-name="レイヤー 2"><g id="レイヤー_1-2" data-name="レイヤー 1"><polygon class="cls-1" points="54 33 27 38 27 0 54 4 54 33"/><path class="cls-2" d="M32.36,5.9A13.1,13.1,0,1,0,45.46,19,13.09,13.09,0,0,0,32.36,5.9Zm-8.11,5A11.44,11.44,0,0,1,28.53,8.2a12,12,0,0,0-1.94,3.53H23.5Q23.86,11.29,24.25,10.89ZM22.62,13H26.2a22.27,22.27,0,0,0-.79,5.43h-4.5A11.44,11.44,0,0,1,22.62,13Zm0,12.08a11.44,11.44,0,0,1-1.71-5.43h4.51A21.74,21.74,0,0,0,26.2,25Zm1.63,2.07q-.39-.41-.75-.84h3.1a13.8,13.8,0,0,0,.73,1.7,10.12,10.12,0,0,0,1.19,1.83A11.48,11.48,0,0,1,24.25,27.11Zm7.5,3.34-.57-.05a3.81,3.81,0,0,1-.9-.56,8.78,8.78,0,0,1-2.37-3.57h3.84v4.18Zm0-5.41H27.48a20.47,20.47,0,0,1-.84-5.43h5.11V25Zm0-6.65H26.64A21.25,21.25,0,0,1,27.48,13h4.27v5.43Zm0-6.66H27.91c.16-.4.33-.78.51-1.13a7.64,7.64,0,0,1,1.86-2.44,3.81,3.81,0,0,1,.9-.56l.57,0v4.18ZM42.1,13a11.44,11.44,0,0,1,1.71,5.43H39.3A21.75,21.75,0,0,0,38.53,13Zm-1.63-2.07c.26.27.52.55.76.84h-3.1a15.54,15.54,0,0,0-.74-1.7A10.12,10.12,0,0,0,36.2,8.2,11.48,11.48,0,0,1,40.47,10.89ZM33,7.55l.58,0a3.76,3.76,0,0,1,.89.56,8.89,8.89,0,0,1,2.38,3.57H33ZM33,13h4.27a20.47,20.47,0,0,1,.84,5.43H33Zm0,6.65h5.11A21.25,21.25,0,0,1,37.24,25H33Zm1.47,10.23a3.76,3.76,0,0,1-.89.56l-.58.05V26.27h3.84c-.16.4-.33.78-.51,1.13A7.5,7.5,0,0,1,34.44,29.84Zm6-2.73A11.48,11.48,0,0,1,36.2,29.8a12.2,12.2,0,0,0,1.93-3.53h3.1C41,26.56,40.73,26.84,40.47,27.11ZM42.1,25H38.52a22.27,22.27,0,0,0,.79-5.43h4.5A11.44,11.44,0,0,1,42.1,25Z"/><polygon class="cls-2" points="0.5 33.57 0.5 5.42 26.5 0.6 26.5 37.42 0.5 33.57"/><path class="cls-1" d="M26,1.2V36.84L1,33.14V5.83L26,1.2M27,0,0,5V34l27,4V0Z"/><circle class="cls-1" cx="7" cy="19" r="2"/><path class="cls-3" d="M73.17,27.71a14.67,14.67,0,0,1-5.18.93c-7.13,0-8.82-5.31-8.82-9.15,0-5.54,3.6-9.38,9.3-9.38a10.45,10.45,0,0,1,4.19.77l-.52,1.64a8.65,8.65,0,0,0-3.72-.74c-4.29,0-7.18,2.77-7.18,7.59S64,27,68.13,27a7,7,0,0,0,3.08-.52V20.68H67.54v-1.6h5.63Z"/><path class="cls-3" d="M87.65,21.85c0,4.84-3.2,6.89-6.09,6.89-3.33,0-5.91-2.5-5.91-6.7,0-4.44,2.77-6.89,6.08-6.89C85.28,15.15,87.65,17.86,87.65,21.85Zm-6-5.15c-2.81,0-4,2.76-4,5.27,0,2.88,1.59,5.22,3.93,5.22s4-2.34,4-5.27C85.62,19.6,84.5,16.7,81.66,16.7Z"/><path class="cls-3" d="M101.7,21.85c0,4.84-3.2,6.89-6.08,6.89-3.34,0-5.92-2.5-5.92-6.7,0-4.44,2.77-6.89,6.08-6.89C99.34,15.15,101.7,17.86,101.7,21.85Zm-6-5.15c-2.81,0-4,2.76-4,5.27,0,2.88,1.6,5.22,3.93,5.22s4-2.34,4-5.27C99.67,19.6,98.55,16.7,95.71,16.7Z"/><path class="cls-3" d="M115.2,25.23c0,1.05,0,2.34.09,3.22h-1.76l-.1-2.21h-.07a4.6,4.6,0,0,1-4.24,2.5c-3,0-5.35-2.6-5.35-6.61,0-4.39,2.58-7,5.61-7a4.16,4.16,0,0,1,3.79,2h0V9.37h2Zm-2-4.58a3.59,3.59,0,0,0-3.51-3.88c-2.45,0-3.91,2.29-3.91,5.27,0,2.74,1.29,5.08,3.84,5.08a3.74,3.74,0,0,0,3.58-4Z"/><path class="cls-3" d="M134.67,15.46l-4.94,13h-1.86l-4.8-13h2.13L127.8,23c.4,1.17.76,2.27,1,3.34h.07c.28-1.07.66-2.17,1.07-3.34l2.58-7.53Z"/><path class="cls-3" d="M137.89,13.17a1.29,1.29,0,0,1-1.29-1.36,1.3,1.3,0,0,1,1.31-1.34,1.27,1.27,0,0,1,1.29,1.34A1.27,1.27,0,0,1,137.89,13.17Zm1,15.28h-2v-13h2Z"/><path class="cls-3" d="M152,27.9a9.38,9.38,0,0,1-4.08.82c-3.79,0-6-2.68-6-6.56,0-4.08,2.29-7,5.79-7,4,0,5,3.67,5,5.93,0,.46,0,.79,0,1.1h-8.85c0,3.6,2.07,5,4.41,5a8.11,8.11,0,0,0,3.41-.67Zm-1.26-7.2c0-1.76-.72-4.05-3.27-4.05-2.38,0-3.43,2.26-3.62,4.05Z"/><path class="cls-3" d="M172.38,15.43l-4.13,13h-1.76l-2.05-6.53a38.85,38.85,0,0,1-1.15-4.29h-.07A34.35,34.35,0,0,1,162,21.94l-2.17,6.51h-1.79l-3.84-13h2.05l1.81,6.82c.36,1.46.72,2.79,1,4.13h.07c.29-1.29.72-2.7,1.15-4.1l2.17-6.85h1.71l2.08,6.73c.45,1.52.83,2.91,1.14,4.22h.08c.23-1.29.59-2.65,1-4.2l1.91-6.75Z"/></g></g></svg>