<svg xmlns="http://www.w3.org/2000/svg" viewBox="0 0 405.45 257.78"><defs><style>.cls-1{fill:#7ce8ab;}.cls-2{font-size:12px;}.cls-2,.cls-3{fill:#95daaf;font-family:KozGoPr6N-Regular-83pv-RKSJ-H, Kozuka Gothic Pr6N;}.cls-3{font-size:7.23px;}.cls-4,.cls-5{fill:none;stroke:#95daaf;}.cls-11,.cls-4,.cls-5{stroke-miterlimit:10;}.cls-11,.cls-4{stroke-width:3px;}.cls-5{stroke-width:2px;}.cls-6{fill:#00d564;}.cls-7{fill:#fd5;}.cls-8{fill:#ffcdeb;opacity:0.28;}.cls-11,.cls-9{fill:#fff;}.cls-10{fill:#ff7bac;}.cls-11{stroke:#7ce8ab;}</style></defs><g id="レイヤー_2" data-name="レイヤー 2"><g id="レイヤー_1-2" data-name="レイヤー 1"><path class="cls-1" d="M228.09,16.26a.77.77,0,0,0,0-.15l-.22-.91a.61.61,0,0,0-.3-.4.63.63,0,0,0-.5-.07l-7,2a.66.66,0,0,1-.7-.25L216.11,12a.66.66,0,0,1-.12-.47l.65-4.72a.64.64,0,0,1,.47-.53l7.41-2.07a.63.63,0,0,0,.45-.77l-.29-1.2a.65.65,0,0,0-.08-.17,11.12,11.12,0,0,0-17.41,10.77q.1.73.15,1.35a11.13,11.13,0,0,0,2.86,4.91,11.26,11.26,0,0,0,4.65,2.79,3.14,3.14,0,0,1,.77.17l.45.13a11.17,11.17,0,0,0,10-3.09A11.43,11.43,0,0,0,228.09,16.26Z"/><path class="cls-1" d="M210.89,23.41a12.71,12.71,0,0,1-5.14-5.26C202.22,21.66,183.24,40,183.24,40a4.1,4.1,0,1,0,5.8,5.8Zm-26.2,20.94a2.05,2.05,0,1,1,2.9,0A2.05,2.05,0,0,1,184.69,44.35Z"/><text class="cls-2" transform="translate(190.19 58.48)">Making</text><text class="cls-2" transform="translate(334.26 91.93)">Shopping</text><path class="cls-1" d="M379.27,30.68a1.83,1.83,0,0,0-1.77,1.37l-1.81,7H343.83a1.84,1.84,0,0,0-1.76,2.34l5.25,18.2a1.82,1.82,0,0,0,1.75,1.33h21L369.26,64h-20v3.22h21.11a1.83,1.83,0,0,0,1.77-1.37l8.24-31.93h5.84V30.68Zm-6.8,20.85-1.59,6.17h-4V51.53Zm2.39-9.24-1.56,6h-6.45v-6Zm-11.23,9.24V57.7h-6.88V51.53Zm0-9.24v6h-6.88v-6Zm-9.58,0v6h-6.63l-1.74-6Zm0,9.24V57.7h-3.93l-1.78-6.17Z"/><path class="cls-1" d="M352.31,69.64a3.27,3.27,0,1,0,3.27,3.26A3.27,3.27,0,0,0,352.31,69.64Z"/><path class="cls-1" d="M368,69.82a3.27,3.27,0,1,0,3.27,3.27A3.27,3.27,0,0,0,368,69.82Z"/><path class="cls-1" d="M388.6,189.44l6.56-10.25-2-1.25,11.56-18.06a3.3,3.3,0,0,0-2.43-5.34c-7.51-.38-17.39,3-18.48,4.68l-5.78,9-2-1.25-6.56,10.25-1.22-.78L355.45,196.6a2.46,2.46,0,0,0,.75,3.41l17.32,11.09a2.47,2.47,0,0,0,3.41-.74l12.89-20.14Zm-29,9.3-1.47-.94,11.1-17.33,1.46.94-11.09,17.33Zm27.3-10.39-15.62-10,5.47-8.55,15.62,10-5.47,8.54Z"/><text class="cls-2" transform="translate(355.08 226.04)">Decorate</text><path class="cls-1" d="M26.43,175.89a3.75,3.75,0,0,0,3.75-3.76l1.37-14.35h-6l-2.87,14.35A3.75,3.75,0,0,0,26.43,175.89Z"/><path class="cls-1" d="M37,175.89a3.75,3.75,0,0,0,3.75-3.76L40,157.78H34l-.75,14.35A3.76,3.76,0,0,0,37,175.89Z"/><path class="cls-1" d="M47.64,175.89a3.75,3.75,0,0,0,3.75-3.76l-2.87-14.35h-6l1.37,14.35A3.75,3.75,0,0,0,47.64,175.89Z"/><path class="cls-1" d="M57,157.78H51l3.5,14.35a3.73,3.73,0,0,0,2.83,3.63v24.5H51.67V183.68H37.41v16.58H16.74v-24.5a3.74,3.74,0,0,0,2.84-3.63l3.49-14.35h-6l-5,14.35a3.74,3.74,0,0,0,1.53,3V203.4H60.47V175.14a3.74,3.74,0,0,0,1.53-3Zm-7.69,42.48H39.76V186h9.56Z"/><rect class="cls-1" x="22.74" y="182.57" width="8.34" height="8.34"/><text class="cls-2" transform="translate(10.96 221.53)">Shopping</text><text class="cls-3" transform="translate(196.35 187.32)">Writing</text><rect class="cls-4" x="172.05" y="130.77" width="69" height="70" rx="9.96"/><rect class="cls-5" x="178.45" y="137.27" width="56.19" height="57" rx="9.96"/><polygon class="cls-6" points="238.5 180.28 252.5 185.28 249.5 188.28 255.5 193.28 250.5 198.28 244.5 192.28 239.98 194.6 238.5 180.28"/><path class="cls-7" d="M144,123.78s4,9-3,13c0,0,8-2,10,9,0,0-2-14,5-16C156,129.78,148,134.78,144,123.78Z"/><path class="cls-7" d="M159.67,154.54s.68,9.83-7.27,11.19c0,0,8.2.86,6.32,11.88,0,0,2.91-13.84,10.17-13.32C168.89,164.29,159.66,166.25,159.67,154.54Z"/><path class="cls-7" d="M259.72,128s-1.77,9.69-9.81,9.05c0,0,7.74,2.85,3.19,13.07,0,0,6.24-12.7,13.15-10.4C266.25,139.76,256.82,139.38,259.72,128Z"/><path class="cls-7" d="M260.84,159.13s-1.22,6.43-6.55,6c0,0,5.12,1.94,2,8.7,0,0,4.2-8.4,8.78-6.84C265.12,167,258.86,166.65,260.84,159.13Z"/><path class="cls-1" d="M303.17,107.78v118h-191v-118h191m4.49-12h-200a7.5,7.5,0,0,0-7.5,7.5v127a7.5,7.5,0,0,0,7.5,7.51h200a7.51,7.51,0,0,0,7.51-7.51v-127a7.5,7.5,0,0,0-7.51-7.5Z"/><polygon class="cls-1" points="263.17 250.78 152.17 250.78 152.17 257.78 263.17 257.78 263.17 250.78 263.17 250.78"/><polygon class="cls-1" points="217.67 232.78 197.67 232.78 197.67 252.78 217.67 252.78 217.67 232.78 217.67 232.78"/><path class="cls-8" d="M197.5,123.28,97.93,29.57a53.5,53.5,0,1,0-53,85.56L191,177.78s17.59-9.62,21.05-13.56S226,147.78,226,147.78Z"/><polygon class="cls-9" points="195.14 163.97 218.51 141.2 227.18 149.7 204.88 172.45 194.19 175.78 192.01 172.58 195.14 163.97"/><path class="cls-10" d="M226.49,147.72l-5.4-5.4a3.71,3.71,0,0,0-5.24,0l-3.51,3.51-17.12,17.12a7,7,0,0,0-1.59,2.51l-3.47,9.66a2.76,2.76,0,0,0,3.54,3.53l9.66-3.47a6.84,6.84,0,0,0,2.51-1.59l16.2-16.2h0l.92-.92,3.5-3.5h0A3.7,3.7,0,0,0,226.49,147.72Zm-29.43,17.05,17-17,3,3-17.25,17.25-3-3A3.33,3.33,0,0,1,197.06,164.77Zm5.42,8L196.33,175l-2.47-2.47,2.21-6.15.06-.13,6.48,6.48Zm1.55-1a3.2,3.2,0,0,1-.27.25l-3-3L218,151.73l3,3Zm20.63-20.63-2.59,2.59-.13.13-7-7,2.72-2.71a1.1,1.1,0,0,1,1.57,0l5.41,5.4a1.13,1.13,0,0,1,0,1.58Z"/><circle class="cls-11" cx="55" cy="61.78" r="53.5"/><path class="cls-1" d="M77.71,35.92,71.29,29.5a4.42,4.42,0,0,0-6.23,0L60.9,33.66,40.55,54a8.09,8.09,0,0,0-1.89,3L34.53,68.47a3.29,3.29,0,0,0,4.21,4.21l11.47-4.13a8,8,0,0,0,3-1.89L72.46,47.4h0l1.09-1.09,4.16-4.17h0A4.39,4.39,0,0,0,77.71,35.92Zm-35,20.27L62.92,36l3.61,3.6L46,60.1l-3.59-3.58A3.18,3.18,0,0,1,42.73,56.19Zm6.44,9.46-7.31,2.63-2.93-2.93L41.56,58a.76.76,0,0,1,.06-.16l7.71,7.71ZM51,64.48a2.28,2.28,0,0,1-.33.29l-3.58-3.58,20.5-20.51,3.61,3.6ZM75.53,40,72.46,43l-.15.15L64,34.9l3.23-3.23a1.33,1.33,0,0,1,1.87,0l6.42,6.43a1.32,1.32,0,0,1,0,1.87Z"/><text class="cls-2" transform="translate(33.23 86.62)">Writing</text></g></g></svg>