<svg xmlns="http://www.w3.org/2000/svg" viewBox="0 0 487.73 231.5"><defs><style>.cls-1{fill:#c6f4de;}.cls-2{fill:#f1ff56;}.cls-3{fill:#eeff56;}.cls-4{fill:#00d564;}.cls-5{fill:#fff;}.cls-6{fill:#ecc3c4;}.cls-7{fill:#f4cdc9;}.cls-8{fill:#eec3c4;}.cls-9{fill:#01d464;}.cls-10{fill:#51df8c;}.cls-11,.cls-12{fill:none;}.cls-11{stroke:#fff;stroke-miterlimit:10;}.cls-12{stroke:#00d564;stroke-linecap:round;stroke-linejoin:round;}</style></defs><g id="レイヤー_2" data-name="レイヤー 2"><g id="レイヤー_1-2" data-name="レイヤー 1"><polygon class="cls-1" points="99.73 229.5 178.73 161.5 405.73 147.5 487.73 194.5 487.73 231.5 99.73 229.5"/><path class="cls-2" d="M196.73,158.5s4-54,10-57,11-6,19-6,28,0,40,4,15,11,15,14,3,13-1,20a9.79,9.79,0,0,0,1,7,25.14,25.14,0,0,1,2,15c-1,5-83,8-83,8Z"/><path class="cls-3" d="M61,86.5v54H7v-54H61m7-7H0v68H68v-68Z"/><path class="cls-4" d="M129.23,8v94h-94V8h94m8-8h-110V110h110V0Z"/><circle class="cls-4" cx="184.34" cy="25.45" r="24"/><path class="cls-5" d="M178.49,22.86a2.07,2.07,0,0,0,2.07-2.07l.75-7.92H178l-1.58,7.92A2.07,2.07,0,0,0,178.49,22.86Z"/><path class="cls-5" d="M184.34,22.86a2.07,2.07,0,0,0,2.07-2.07L186,12.87h-3.31l-.41,7.92A2.07,2.07,0,0,0,184.34,22.86Z"/><path class="cls-5" d="M190.19,22.86a2.07,2.07,0,0,0,2.07-2.07l-1.58-7.92h-3.32l.76,7.92A2.07,2.07,0,0,0,190.19,22.86Z"/><path class="cls-5" d="M195.36,12.87H192L194,20.79a2.07,2.07,0,0,0,1.57,2V36.31h-3.13V27.16h-7.87v9.15h-11.4V22.79a2.06,2.06,0,0,0,1.56-2l1.93-7.92h-3.31l-2.76,7.92a2.07,2.07,0,0,0,.85,1.66V38h25.86V22.45a2.06,2.06,0,0,0,.84-1.66Zm-4.24,23.44h-5.28V28.46h5.28Z"/><rect class="cls-5" x="176.45" y="26.55" width="4.6" height="4.6"/><circle class="cls-4" cx="202.09" cy="52.54" r="5.96"/><circle class="cls-4" cx="213.95" cy="61.4" r="3.78"/><path class="cls-6" d="M249.73,91.5l-2,11s-8,6-11,3-6-6-6-8,7-16,7-16Z"/><path class="cls-7" d="M231.73,76.5s3,8,7,12,13,8,17,8,7-6,7-7-1-11,0-13,2-8,1-10-12-6-12-6"/><path class="cls-4" d="M217.73,123.5s-15-2-16-9,3-9,5-11,11-10,11-14-1-17,3-25,9-16,15-17,19-1,25,6a17.9,17.9,0,0,1,4,15s-3-4-6-4-4,0-7,4-13,9-16,9h-3a6.19,6.19,0,0,0,2,4l2,1v3c0,2-1,5-1,6s0,8-2,8-5,3-8,4-11,10.88-11,15C214.73,119.5,214.73,122.5,217.73,123.5Z"/><path class="cls-7" d="M221.73,162.5s2,2,4,1,5-5,5-9,1-18,2-22,9-15,9-15,6,3,9,7,6,18,8,22,5,12,12,13,6-12,6-15-5-14-10-19-13-10-13-10,1-10,0-12-5-4-7-5-3-2-6-1-4,4-7,4-7-1-6,0,1,3,3,4c0,0-2,6-3,8s-3,6-3,9,1,3-1,7-5,7-7,12-4,11-2,15S221.73,162.5,221.73,162.5Z"/><path class="cls-4" d="M263.73,109.5a52.43,52.43,0,0,1,18-18c12-7,5-2,16-6s17.45-3.24,24.73-3.62,16.27,6.62,25.27,7.62,19,5,20,17,0,20,0,24,4,6,6,9,5,11,1,14-96.27-.33-96.27-.33Z"/><path class="cls-5" d="M310.73,78.5s-4-1-4,2-1,3,0,6,5,11,6,13,1-6,2-6,1,2,1,3,3,15,3,15l3,30,5,1s0-43,2-45,1-3,2-1-1,2,1,1,3-5,3-6,1-9,0-12S310.73,78.5,310.73,78.5Z"/><path class="cls-8" d="M309.92,69.5l.81,16s3,5,6,7,6,4,6,7a12.68,12.68,0,0,0,2,6s0-6,3-9a76.84,76.84,0,0,0,6-7v-8Z"/><path class="cls-7" d="M310.73,66.5s0,12,1,14,7,8,10,9,10-4,11-6,5-7,6-13,0-8,0-8l-24-13Z"/><path class="cls-9" d="M309.73,70.5a64.72,64.72,0,0,0-3-10c-2-5-3-11,1-15s6-6,14-7,12-1,15,2a105.92,105.92,0,0,1,10,12c2,3,3,4,2,6s-2,1-2,4,0,5-1,5-2,1-2,3a2,2,0,0,1-2,2s-3.13-3-13-7c-5-2-7-5-9-7-.71-.71-3-5-5-2s-1,3-2,6-2,8-2,8Z"/><path class="cls-7" d="M310.55,70.93s-1.82,2.27-3.82-2.28-3-8-1-9.11,4,1.14,4,1.14"/><path class="cls-5" d="M291.73,183.5l-13-20s-2-4,0-4,12,1,12,1v-17s-1-3,5-3h75s2,0,2,4v1l-4,36Z"/><path class="cls-5" d="M253.73,163.5v2h-3a2.94,2.94,0,0,0-3,3v13c0,3,2,3,2,3h5v1c8,4,18,0,18,0v-22C264.73,161.5,253.73,163.5,253.73,163.5Zm0,6v11s-2,1-3-2v-8a3.1,3.1,0,0,1,1-2h2Z"/><path class="cls-10" d="M204.73,222.5s-2,1,2-6,11-23,11-23-2-2,20-3l44-2a2,2,0,0,1,2,2c0,2,4,25,4,27s0,2-6,3-75,4-75,4S203.73,225.5,204.73,222.5Z"/><path class="cls-5" d="M221.73,192.5s57-1,59-2l1,27s-37,7-70,3C211.73,220.5,221.73,193.5,221.73,192.5Z"/><path class="cls-5" d="M334.73,209.5l7,8,1,2s-44,4-47,4c0,0-8.3-20.17-9.65-21.08l33.65-3.92-12-9,45.37-6.93,31.63,18.93S338.73,207.5,334.73,209.5Z"/><path class="cls-11" d="M364.73,179.5s21,3,22,2-4-7-6-8"/><path class="cls-5" d="M375.23,173s-2-9,2-13,6-6,9-4,4,3,4,7-3,9-6,10S377.23,176,375.23,173Z"/><path class="cls-12" d="M378.73,169.5a61.25,61.25,0,0,1,4-6"/><circle class="cls-4" cx="388.78" cy="24.12" r="20.38"/><path class="cls-5" d="M383.81,21.92a1.76,1.76,0,0,0,1.76-1.76l.64-6.73h-2.82l-1.34,6.73A1.76,1.76,0,0,0,383.81,21.92Z"/><path class="cls-5" d="M388.78,21.92a1.75,1.75,0,0,0,1.75-1.76l-.35-6.73h-2.81L387,20.16A1.76,1.76,0,0,0,388.78,21.92Z"/><path class="cls-5" d="M393.75,21.92a1.75,1.75,0,0,0,1.75-1.76l-1.34-6.73h-2.81l.64,6.73A1.76,1.76,0,0,0,393.75,21.92Z"/><path class="cls-5" d="M398.13,13.43h-2.81L397,20.16a1.75,1.75,0,0,0,1.33,1.7V33.34h-2.65V25.57H389v7.77h-9.68V21.86a1.76,1.76,0,0,0,1.33-1.7l1.63-6.73h-2.81l-2.34,6.73a1.73,1.73,0,0,0,.72,1.41V34.81h22V21.57a1.75,1.75,0,0,0,.71-1.41Zm-3.6,19.91h-4.48V26.67h4.48Z"/><rect class="cls-5" x="382.08" y="25.05" width="3.91" height="3.91"/><circle class="cls-4" cx="422.3" cy="87.97" r="22.43"/><path class="cls-5" d="M416.83,85.54a1.92,1.92,0,0,0,1.93-1.93l.71-7.41h-3.1l-1.48,7.41A1.93,1.93,0,0,0,416.83,85.54Z"/><path class="cls-5" d="M422.3,85.54a1.92,1.92,0,0,0,1.93-1.93l-.38-7.41h-3.1l-.39,7.41A1.93,1.93,0,0,0,422.3,85.54Z"/><path class="cls-5" d="M427.77,85.54a1.92,1.92,0,0,0,1.93-1.93l-1.48-7.41h-3.09l.7,7.41A1.93,1.93,0,0,0,427.77,85.54Z"/><path class="cls-5" d="M432.6,76.2h-3.1l1.8,7.41a1.94,1.94,0,0,0,1.46,1.87V98.11h-2.91V89.57h-7.36v8.54H411.83V85.48a1.93,1.93,0,0,0,1.46-1.87l1.8-7.41H412l-2.58,7.41a1.94,1.94,0,0,0,.79,1.55V99.73h24.17V85.16a1.91,1.91,0,0,0,.79-1.55Zm-4,21.91H423.7V90.78h4.93Z"/><rect class="cls-5" x="414.93" y="88.99" width="4.3" height="4.3"/><ellipse class="cls-4" cx="372.65" cy="47.24" rx="5.96" ry="5.78"/><ellipse class="cls-4" cx="359.51" cy="50.84" rx="3.78" ry="3.66"/><ellipse class="cls-4" cx="391.93" cy="108.07" rx="5.96" ry="5.78"/><ellipse class="cls-4" cx="376.79" cy="103.67" rx="3.78" ry="3.66"/></g></g></svg>